<svg id="visual" viewBox="0 0 900 600" width="900" height="600" xmlns="http://www.w3.org/2000/svg" xmlns:xlink="http://www.w3.org/1999/xlink" version="1.1"><rect x="0" y="0" width="900" height="600" fill="#002233"></rect><path d="M0 495L21.5 476C43 457 86 419 128.8 415C171.7 411 214.3 441 257.2 459.2C300 477.3 343 483.7 385.8 472.7C428.7 461.7 471.3 433.3 514.2 418C557 402.7 600 400.3 642.8 419.2C685.7 438 728.3 478 771.2 497.5C814 517 857 516 878.5 515.5L900 515L900 601L878.5 601C857 601 814 601 771.2 601C728.3 601 685.7 601 642.8 601C600 601 557 601 514.2 601C471.3 601 428.7 601 385.8 601C343 601 300 601 257.2 601C214.3 601 171.7 601 128.8 601C86 601 43 601 21.5 601L0 601Z" fill="#94cbff" stroke-linecap="round" stroke-linejoin="miter"></path></svg>